<svg width="447" height="380" viewBox="0 0 447 380" fill="none" xmlns="http://www.w3.org/2000/svg">
<path d="M152 80.4268H166L176 110.933L185 141.44L188 146.987L199 110.933L208 80.4268H221V282.88H208L207 122.027L194 166.4L187 191.36L183 185.813L172 155.307L165 133.12L161 122.027L160 282.88H152V80.4268Z" fill="#252525"/>
<path d="M95 80.4268H106L115 85.9734L126 102.613L133 124.8L137 149.76L138 160.853V199.68L135 227.413L129 252.373L121 269.013L111 280.107L105 282.88H96L84 274.56L74 257.92L67 232.96L64 213.547L63 199.68V163.627L66 135.893L72 110.933L81 91.5201L90 83.2001L95 80.4268ZM96 102.613L88 110.933L82 124.8L76 158.08V202.453L80 230.187L87 249.6L93 257.92L104 260.693L114 249.6L121 230.187L125 202.453L126 180.267L124 149.76L118 122.027L109 105.387L105 102.613H96Z" fill="#252525"/>
<path d="M405 80.4268H415L427 88.7468L436 105.387L443 127.573L447 155.307V208L443 235.733L434 263.467L424 277.333L414 282.88H406L394 274.56L386 263.467L379 244.053L374 216.32L373 208V155.307L377 127.573L386 99.8401L396 85.9734L405 80.4268ZM405 102.613L395 116.48L389 135.893L385 166.4V196.907L389 227.413L395 246.827L403 257.92L413 260.693L422 252.373L429 235.733L434 208L435 196.907V166.4L431 135.893L424 113.707L415 102.613H405Z" fill="#252525"/>
<path d="M0 80.4268H12L13 155.307L40 80.4268H51L45 99.8401L38 119.253L31 141.44L26 155.307L28 169.173L40 210.773L52 255.147L58 277.333V280.107H41L32 246.827L22 210.773L16 188.587L13 191.36L12 280.107H0V80.4268Z" fill="#252525"/>
<path d="M325 80.4268H367V102.613H338V166.4H356V185.813H338V282.88H325V80.4268Z" fill="#252525"/>
<path d="M262 80.4268H275V260.693H310V282.88H262V80.4268Z" fill="#252525"/>
<path d="M235 80.4268H248V282.88H235V80.4268Z" fill="#252525"/>
<path d="M185 0H188L197 47.1467L195 58.24L187 80.4267L180 63.7867L176 52.6933L178 36.0533L185 0Z" fill="#252525"/>
<path d="M223 324.48L227 327.253L232 354.987L237 324.48H241L243 379.947H239L237 349.44L232 377.173H230L226 352.213L225 354.987L224 379.947H221L222 327.253L223 324.48Z" fill="#252525"/>
<path d="M94 324.48H103L108 338.347L109 357.76L106 374.4L103 379.947H93L89 368.853L88 363.307V343.893L92 327.253L94 324.48ZM95 332.8L92 341.12V363.307L95 371.627L99 374.4L104 366.08L105 346.667L101 332.8H95Z" fill="#252525"/>
<path d="M323 324.48H331L336 335.573L337 360.533L334 374.4L331 379.947H321L317 368.853L316 346.667L319 332.8L323 324.48ZM324 332.8L320 343.893V360.533L323 371.627L328 374.4L333 363.307V343.893L329 332.8H324Z" fill="#252525"/>
<path d="M343 324.48H346L353 346.667L357 357.76L358 324.48H361V379.947L357 377.173L347 346.667L346 379.947H343V324.48Z" fill="#252525"/>
<path d="M249 324.48H259L262 332.8V346.667V354.987L263 357.76V371.627L260 379.947H249V324.48ZM252 332.8V349.44L258 346.667L257 332.8H252ZM252 354.987V374.4L259 371.627L258 357.76L257 354.987H252Z" fill="#252525"/>
<path d="M125 324.48H135L138 332.8V346.667V354.987L139 357.76V371.627L136 379.947H125V324.48ZM128 332.8V349.44L134 346.667L133 332.8H128ZM128 354.987V374.4L135 371.627L134 357.76L133 354.987H128Z" fill="#252525"/>
<path d="M288 324.48H297L300 330.027V349.44L298 357.76L302 379.947L297 377.173L294 363.307V357.76H291V379.947H288V324.48ZM291 332.8V349.44H296L297 338.347L295 332.8H291Z" fill="#252525"/>
<path d="M198 324.48H202L203 366.08L208 371.627L211 366.08L212 324.48H215V368.853L211 379.947H202L198 366.08V324.48Z" fill="#252525"/>
<path d="M174 324.48L178 330.027L188 360.533L189 324.48H191V379.947L187 374.4L177 346.667L176 379.947H174V324.48Z" fill="#252525"/>
<path d="M368 324.48H380V332.8H372V349.44H379V354.987H372V374.4H381V379.947H368V324.48Z" fill="#252525"/>
<path d="M269 324.48H281V332.8H272V349.44H280V354.987H272V374.4H281V379.947H269V324.48Z" fill="#252525"/>
<path d="M145 324.48H157V332.8H148V349.44H156V354.987H148V374.4H157V379.947H145V324.48Z" fill="#252525"/>
<path d="M66 324.48H85V332.8H77V379.947H74V332.8H66V324.48Z" fill="#252525"/>
</svg>
