<svg width="300" height="416" viewBox="0 0 300 416" fill="none" xmlns="http://www.w3.org/2000/svg">
<g clip-path="url(#clip0_7_106)">
<path d="M151 77.6533L156 83.2L162 105.387L163 108.16L179 110.933L185 122.027L186 127.573V152.533L184 163.627L178 171.947L168 177.493L162 188.587L159 205.227L157 230.187L153 241.28H145L141 230.187L140 224.64V205.227L144 194.133L157 180.267L162 163.627L163 155.307V127.573L160 119.253L147 110.933L145 99.84L146 85.9733L151 77.6533Z" fill="#252525"/>
<path d="M137 49.9199H143L145 55.4666V69.3333L143 74.8799L134 83.1999L133 99.8399L135 119.253L141 130.347L151 138.667L154 149.76L153 166.4L150 174.72H142L139 160.853L136 141.44L132 133.12L119 127.573L114 113.707V91.5199L119 77.6533L132 72.1066L135 61.0133L137 49.9199Z" fill="#252525"/>
<path d="M59 285.653H76L82 293.973L86 307.84L87 313.387V341.12L83 357.76L79 366.08H59V285.653ZM63 296.747V354.987H76L80 349.44L82 338.347V316.16L79 302.293L74 296.747H63Z" fill="#252525"/>
<path d="M108 285.653L112 288.427L124 324.48L128 338.347L129 285.653H133V366.08L129 363.307L118 330.027L114 316.16L113 366.08H108V285.653Z" fill="#252525"/>
<path d="M157 285.653H162V318.933L170 302.293L177 285.653H183V291.2L177 302.293L172 316.16L182 354.987L184 366.08H178L168 327.253L163 335.573L162 366.08H157V285.653Z" fill="#252525"/>
<path d="M210 302.293L214 307.84L224 363.307V366.08H219L217 354.987L205 352.213L203 366.08H198L206 318.933L210 302.293ZM211 321.707L208 335.573V341.12H215L212 321.707H211Z" fill="#252525"/>
<path d="M236 257.92L241 260.693L240 277.333L235 302.293L231 299.52L232 285.653L236 257.92Z" fill="#252525"/>
</g>
<defs>
<clipPath id="clip0_7_106">
<rect width="300" height="416" fill="white"/>
</clipPath>
</defs>
</svg>
