<svg width="451" height="216" viewBox="0 0 451 216" fill="none" xmlns="http://www.w3.org/2000/svg">
<path d="M97 0H102L104 7L103 30L100 55L108 53H121L129 56L136 63L140 71L142 81V93L139 113L133 135V138L141 131L152 125L159 124L165 127L167 132V147L160 181L159 188V204L162 208L171 207L182 201L193 191L202 180L206 178H208L211 177L215 182L216 193L222 195H230L238 188L245 176L250 177L251 181L244 191L240 198L238 204L244 201L256 190L265 176L267 174L271 175L270 181L263 192L261 204L264 205L274 201L286 190L295 181L298 179L303 180L302 189L295 203L300 201L313 190L319 186H324L323 195L321 200V206H328L340 200L349 192L356 179L360 178L361 179L360 186L355 197L354 205L363 204L373 197L385 185L389 180L392 172L397 173L398 176L411 173L416 174V180L405 195L400 205L401 207L404 208H415L428 204L439 197L448 188L451 190L450 194L441 203L431 209L420 213L407 214L397 212L393 209V202L401 191L409 180L399 182L393 185L382 197L371 206L359 212L352 213L348 211L346 202L336 208L326 212H318L313 207L314 199L299 209L291 213L287 211L288 202L290 195L278 205L266 211L258 212L254 208L253 201L244 209L239 212H234L232 210V201L229 202H219L212 198L208 204L202 211L198 213H191L187 208L186 206L175 213L168 216H160L155 211L152 203V192L156 169L161 145V133L158 130L152 131L141 138L132 146L127 152L119 171L111 187L103 201L95 211L90 215L85 214L84 208L88 197L97 181L111 162L120 151L129 124L133 105L134 96V79L131 68L125 61L121 59L111 58L99 60L96 77L89 107L82 130L75 150L65 172L54 190L42 204L31 212L24 215L16 216L7 213L3 208L1 203L0 190L3 174L8 159L18 138L30 118L40 104L49 93L60 81L71 71L84 62L90 59L93 40L95 20L96 1L97 0ZM88 66L78 74L68 83L56 96L41 116L29 135L19 153L11 172L7 185L6 191V201L9 207L14 210H24L32 206L42 197L52 183L61 166L71 141L80 113L86 89L90 66H88ZM110 173L98 190L91 203L92 206L98 199L110 178L111 173H110ZM207 183L202 188L196 196L193 203L194 208L199 207L206 199L209 191L208 183H207Z" fill="#1A1A19"/>
</svg>
