<svg width="610" height="249" viewBox="0 0 610 249" fill="none" xmlns="http://www.w3.org/2000/svg">
<g clip-path="url(#clip0_7_121)">
<rect width="610" height="249" fill="white"/>
<path d="M268.316 184.956H470.168L529.136 187.224H579.032V195.162L584.702 196.296L586.97 198.564L585.836 206.502L588.104 214.44L591.506 216.708L590.372 225.78L586.97 228.048L589.238 229.182V231.45H592.64L593.774 237.12H589.238V243.924L575.63 247.326L569.96 249.594H464.498L431.612 248.46H370.376L334.088 249.594L326.15 250.728H295.532L292.13 249.594L277.388 250.728L260.378 248.46L255.842 246.192V237.12L256.976 231.45H259.244L260.378 225.78L261.512 214.44H259.244L258.11 206.502L261.512 201.966H263.78L264.914 190.626L268.316 184.956Z" fill="#E2081E"/>
<path d="M285.326 33L293.264 35.268L294.398 36.402V45.474L286.46 57.948L284.192 60.216L279.656 71.556L275.12 81.762L270.584 95.37L267.182 103.308L262.646 119.184L297.8 115.782L303.47 116.916H306.872L312.542 110.112L318.212 104.442L321.614 102.174H331.82L335.222 107.844L338.624 115.782V127.122L334.088 142.998L326.15 155.472L322.748 161.142H320.48L318.212 165.678L313.676 170.214L305.738 175.884L302.336 177.018H294.398L288.728 172.482L285.326 165.678V153.204L290.996 138.462H293.264L295.532 132.792L300.068 124.854L287.594 127.122L267.182 129.39L258.11 133.926L253.574 144.132L247.904 162.276L242.234 179.286L238.832 192.894L233.162 208.77L230.894 218.976L229.76 221.244L233.162 220.11L254.708 218.976L255.842 223.512L246.77 228.048L227.492 230.316L225.224 234.852L221.822 248.46L216.152 259.8L213.884 262.068H204.812L201.41 258.666L202.544 249.594L204.812 246.192H207.08L208.214 240.522L213.884 229.182H200.276L184.4 223.512L173.06 216.708L167.39 211.038L160.586 201.966L148.112 182.688L144.71 174.75L135.638 156.606L131.102 149.802L128.834 144.132L118.628 128.256L112.958 122.586L101.618 114.648L97.082 112.38L95.948 119.184L90.278 137.328L84.608 166.812L80.072 171.348H74.402L71 167.946V158.874L78.938 136.194L82.34 121.452L86.876 108.978L90.278 94.236L95.948 77.226L99.35 63.618L101.618 56.814L88.01 61.35L81.206 62.484L76.67 57.948V51.144L84.608 46.608L102.752 42.072L131.102 39.804H167.39L192.338 42.072L200.276 45.474L203.678 50.01L202.544 56.814L198.008 59.082L196.874 62.484L188.936 68.154L179.864 72.69L158.318 84.03L120.896 101.04L112.958 104.442V106.71L114.092 110.112L118.628 111.246L124.298 118.05L129.968 123.72L139.04 137.328L145.844 149.802L154.916 167.946L159.452 177.018L166.256 188.358L175.328 200.832V203.1L179.864 205.368L186.668 211.038L200.276 216.708L210.482 218.976H217.286L222.956 203.1L227.492 188.358L234.296 166.812L239.966 152.07L244.502 136.194L238.832 130.524L237.698 124.854L242.234 119.184L250.172 120.318L253.574 108.978L260.378 86.298L264.914 73.824L268.316 59.082L276.254 38.67L280.79 34.134L285.326 33ZM145.844 48.876L117.494 51.144L116.36 54.546L115.226 62.484L109.556 76.092L105.02 85.164L101.618 96.504L114.092 93.102L131.102 85.164L146.978 77.226L156.05 73.824L173.06 64.752L186.668 56.814L188.936 52.278L186.668 51.144L161.72 48.876H145.844ZM323.882 116.916L317.078 122.586L308.006 133.926L300.068 146.4L296.666 156.606L297.8 162.276L302.336 164.544L311.408 157.74L317.078 152.07L319.346 144.132H321.614L326.15 131.658L328.418 125.988V119.184L327.284 116.916H323.882Z" fill="black"/>
<path d="M556.352 34.134L562.022 35.268L565.424 39.804L564.29 51.144L563.156 55.68L560.888 84.03L559.754 107.844V137.328H571.094L569.96 142.998L568.826 144.132L560.888 145.266L564.29 165.678L563.156 171.348L562.022 172.482H554.084L551.816 170.214L550.682 164.544V146.4L535.94 149.802L521.198 152.07H510.992L509.858 160.008L504.188 173.616L503.054 174.75H495.116L492.848 172.482V164.544L495.116 157.74L486.044 161.142H476.972L474.704 160.008L473.57 152.07L476.972 146.4L479.24 145.266L503.054 144.132L504.188 138.462L509.858 128.256L513.26 119.184L518.93 110.112L521.198 102.174L526.868 93.102L530.27 85.164L535.94 74.958L540.476 63.618L543.878 57.948L549.548 42.072L556.352 34.134ZM549.548 71.556L545.012 78.36L543.878 85.164H541.61L537.074 93.102L533.672 102.174L528.002 111.246L523.466 122.586L520.064 128.256L515.528 140.73V142.998L531.404 141.864L550.682 138.462V71.556H549.548Z" fill="black"/>
<path d="M473.57 104.442L480.374 105.576L481.508 107.844V115.782L472.436 133.926L467.9 144.132L464.498 154.338L461.096 172.482L458.828 173.616H452.024L448.622 170.214V162.276L455.426 144.132L459.962 135.06V130.524L454.292 136.194L442.952 149.802L435.014 158.874L425.942 170.214L418.004 169.08L416.87 167.946L418.004 155.472L425.942 135.06L420.272 140.73L411.2 152.07L402.128 166.812L398.726 175.884L395.324 178.152L387.386 177.018L386.252 169.08L391.922 152.07L395.324 141.864L399.86 130.524L405.53 111.246L406.664 110.112H415.736L418.004 111.246V119.184L411.2 131.658L412.334 132.792L422.54 120.318L427.076 114.648L429.344 113.514H439.55L441.818 116.916L440.684 127.122L437.282 138.462L442.952 132.792L447.488 127.122L453.158 121.452L459.962 115.782L464.498 110.112L470.168 105.576L473.57 104.442Z" fill="black"/>
<path d="M209.348 93.1021H226.358L232.028 99.9061L230.894 110.112L226.358 119.184H224.09L222.956 123.72L216.152 129.39L210.482 135.06H207.08V137.328L194.606 144.132L184.4 146.4L183.266 154.338L185.534 160.008L192.338 164.544L199.142 165.678L212.75 160.008H215.018L216.152 156.606L230.894 146.4H234.296V152.07L229.76 158.874L224.09 164.544L218.42 169.08L204.812 175.884L199.142 177.018H190.07L180.998 172.482L174.194 164.544L173.06 161.142V141.864L182.132 123.72L190.07 112.38L198.008 103.308L205.946 95.3701L209.348 93.1021ZM215.018 104.442L207.08 110.112L201.41 118.05L198.008 121.452L192.338 131.658L198.008 129.39L207.08 123.72L215.018 114.648L216.152 110.112H218.42L219.554 104.442H215.018Z" fill="black"/>
<path d="M389.654 101.04H396.458L398.726 103.308L397.592 111.246L394.19 119.184L390.788 129.39L383.984 142.998L378.314 144.132L376.046 142.998L377.18 133.926L383.984 118.05L377.18 121.452L372.644 127.122L366.974 132.792L359.036 141.864L352.232 155.472L347.696 169.08L340.892 175.884L334.088 177.018L332.954 175.884V165.678L336.356 154.338L340.892 145.266L345.428 131.658L346.562 119.184L349.964 114.648H359.036L361.304 119.184V122.586L365.84 119.184H368.108L370.376 114.648L380.582 105.576L389.654 101.04Z" fill="black"/>
<path d="M286.46 200.832H300.068L303.47 204.234V211.038L301.202 213.306L304.604 216.708V224.646L298.934 229.182H287.594L286.46 228.048V200.832Z" fill="#F9CDD1"/>
<path d="M514.394 207.636H517.796V209.904H520.064V207.636H528.002L531.404 209.904L533.672 207.636H540.476L543.878 212.172V229.182H539.342L538.208 212.172L532.538 213.306L531.404 229.182H526.868L525.734 213.306L521.198 212.172L520.064 213.306L518.93 229.182H514.394V207.636Z" fill="#FAD6D9"/>
<path d="M334.088 207.636H344.294L347.696 211.038V229.182H344.294V226.914L340.892 229.182H334.088L330.686 225.78V220.11L334.088 216.708H343.16L342.026 212.172H331.82L334.088 207.636Z" fill="#FDF2F3"/>
<path d="M496.25 207.636H505.322L508.724 211.038V218.976H495.116L497.384 225.78L508.724 224.646V228.048L505.322 229.182H496.25L490.58 222.378V214.44L496.25 207.636Z" fill="#FCE8EA"/>
<path d="M313.676 207.636H322.748L327.284 212.172V218.976H313.676L315.944 224.646H326.15V228.048L323.882 229.182H314.81L310.274 225.78L309.14 222.378V212.172L313.676 207.636Z" fill="#FEF8F9"/>
<path d="M424.808 199.698H432.746L436.148 201.966V205.368H425.942L427.076 209.904L437.282 216.708V224.646L431.612 229.182H423.674L420.272 226.914V223.512L430.478 224.646L431.612 218.976L422.54 213.306L421.406 211.038V203.1L424.808 199.698Z" fill="#FAD8DB"/>
<path d="M353.366 207.636H357.902L359.036 224.646L364.706 223.512L365.84 207.636H370.376V229.182H366.974V226.914L363.572 229.182H356.768L353.366 224.646V207.636Z" fill="#F9D2D6"/>
<path d="M439.55 207.636L444.086 208.77L447.488 217.842V221.244H449.756L450.89 215.574L454.292 207.636H457.694L455.426 217.842L448.622 235.986H444.086L445.22 225.78L440.684 215.574L439.55 207.636Z" fill="#FDF0F1"/>
<path d="M286.46 200.832H300.068L303.47 204.234V211.038L300.068 213.306V204.234H290.996V213.306L295.532 214.44L290.996 215.574V224.646L298.934 225.78L297.8 228.048H286.46V200.832Z" fill="#FCE5E7"/>
<path d="M389.654 207.636L394.19 208.77L397.592 217.842V221.244H399.86L403.262 208.77L407.798 207.636L405.53 217.842L398.726 235.986L394.19 234.852L395.324 225.78L389.654 212.172V207.636Z" fill="#F9D4D8"/>
<path d="M463.364 207.636H471.302L472.436 211.038H464.498L465.632 215.574L472.436 218.976L473.57 220.11V225.78L469.034 229.182H461.096L459.962 224.646H469.034L470.168 221.244L463.364 218.976L459.962 215.574L461.096 209.904L463.364 207.636Z" fill="#FCE8EA"/>
<path d="M551.816 207.636H559.754L560.888 212.172L552.95 211.038V215.574L557.486 216.708L562.022 220.11V225.78L558.62 229.182H550.682L548.414 228.048V224.646H557.486L558.62 221.244L551.816 218.976L549.548 216.708V209.904L551.816 207.636Z" fill="#FBDEE1"/>
<path d="M479.24 203.1H482.642V207.636H488.312V211.038H482.642L483.776 224.646L488.312 225.78V229.182H481.508L479.24 225.78V211.038H475.838V207.636H479.24V203.1Z" fill="#FCEDEE"/>
<path d="M378.314 203.1H380.582V207.636H387.386V211.038H381.716L382.85 224.646L387.386 225.78L386.252 229.182H380.582L378.314 226.914V211.038H374.912V207.636H378.314V203.1Z" fill="#FDF2F4"/>
<path d="M313.676 207.636H322.748L327.284 212.172V218.976H326.15V213.306H323.882V216.708H312.542L311.408 213.306L309.14 216.708L310.274 211.038L313.676 207.636Z" fill="#F9D1D5"/>
<path d="M334.088 216.708H340.892L344.294 218.976V224.646L343.16 225.78H336.356L334.088 224.646L331.82 226.914L330.686 225.78V220.11L334.088 216.708Z" fill="#F7C0C5"/>
<path d="M439.55 207.636L444.086 208.77L447.488 217.842V221.244H449.756L450.89 217.842L449.756 223.512H444.086L439.55 212.172V207.636Z" fill="#F7BBC1"/>
<path d="M290.996 216.708H300.068L301.202 222.378L298.934 224.646H290.996V216.708Z" fill="#E20D22"/>
<path d="M435.014 217.842H436.148V225.78L431.612 229.182H423.674L420.272 226.914V223.512L432.746 224.646L435.014 217.842Z" fill="#FCECEE"/>
<path d="M334.088 207.636H344.294L347.696 211.038V229.182H346.562L345.428 212.172L342.026 211.038L331.82 212.172L334.088 207.636Z" fill="#F7BBC1"/>
<path d="M424.808 199.698H432.746L436.148 201.966V205.368H425.942L423.674 207.636L421.406 206.502L422.54 201.966L424.808 199.698Z" fill="#F9CDD1"/>
<path d="M558.62 218.976L562.022 220.11V225.78L558.62 229.182H550.682L548.414 228.048V224.646H557.486L558.62 218.976Z" fill="#FCE8EA"/>
<path d="M290.996 204.234H297.8L298.934 205.368V211.038L297.8 212.172H290.996V204.234Z" fill="#E2091E"/>
<path d="M312.542 218.976L314.81 223.512L315.944 224.646H326.15V228.048L323.882 229.182H314.81L311.408 226.914L312.542 218.976Z" fill="#FADADD"/>
<path d="M395.324 222.378L400.994 223.512L399.86 233.718L398.726 235.986L394.19 234.852L395.324 225.78V222.378Z" fill="#FDEFF1"/>
<path d="M495.116 222.378L497.384 223.512V225.78L508.724 224.646V228.048L505.322 229.182H496.25L493.982 224.646L495.116 222.378Z" fill="#FADADE"/>
<path d="M404.396 207.636H407.798L405.53 217.842L403.262 222.378H400.994L402.128 212.172L404.396 207.636Z" fill="#FBE1E4"/>
<path d="M454.292 207.636H457.694L455.426 217.842L453.158 223.512H452.024L450.89 215.574L454.292 207.636Z" fill="#FADADD"/>
<path d="M497.384 211.038H504.188L505.322 216.708H495.116L497.384 211.038Z" fill="#E62D40"/>
<path d="M314.81 211.038H321.614L322.748 216.708H313.676L314.81 211.038Z" fill="#E6293C"/>
<path d="M463.364 207.636H471.302L472.436 211.038H464.498L463.364 214.44L462.23 212.172L459.962 215.574L461.096 209.904L463.364 207.636Z" fill="#F9CFD3"/>
<path d="M380.582 211.038H381.716L382.85 224.646L387.386 225.78L386.252 229.182H380.582L379.448 225.78L380.582 211.038Z" fill="#FAD6D9"/>
<path d="M496.25 207.636H505.322L508.724 211.038V214.44H506.456L505.322 216.708L504.188 212.172L498.518 211.038L496.25 207.636Z" fill="#FAD4D8"/>
<path d="M336.356 220.11H343.16L342.026 224.646L336.356 225.78L335.222 221.244L336.356 220.11Z" fill="#E31126"/>
<path d="M439.55 207.636L444.086 208.77L445.22 217.842L440.684 215.574L439.55 207.636Z" fill="#FADDE0"/>
<path d="M422.54 205.368L428.21 211.038L427.076 214.44L422.54 213.306L421.406 206.502L422.54 205.368Z" fill="#FCEAEC"/>
</g>
<defs>
<clipPath id="clip0_7_121">
<rect width="610" height="249" fill="white"/>
</clipPath>
</defs>
</svg>
