<svg width="178" height="28" viewBox="0 0 178 28" fill="none" xmlns="http://www.w3.org/2000/svg">
<path d="M0.88 27.328V27.008C3.504 26.976 4.048 22.24 4.048 20.512V3.936C4.048 2.368 5.424 1.184 6.8 0.768H2.544V0.447998H9.168V0.768C7.92 0.799999 7.664 3.072 7.664 3.936V20.512C7.664 24.576 4.816 27.328 0.88 27.328ZM16.5437 12.48L12.8637 10.656C13.5357 8.032 17.4397 7.072 19.6797 7.072C22.7517 7.104 26.4637 8.672 26.4958 12.224V20.512C26.4958 23.648 27.9678 23.68 27.9998 23.68V24C26.3038 24 24.4797 23.616 23.4878 22.272C22.8477 21.408 22.8477 20.544 22.8477 20.512V19.552C22.2078 22.176 20.6397 24.064 17.8237 24.064C15.1037 24.064 12.8957 21.792 12.8957 18.848C12.8957 14.656 16.1917 13.728 19.6797 13.728C21.9517 13.728 22.9117 12.448 22.7517 11.008C22.5278 9.344 21.6637 7.424 19.6797 7.392C17.3117 7.392 16.5437 10.56 16.5437 12.48ZM16.5437 18.848C16.5437 20.576 17.0557 24.192 19.6477 23.392C21.9198 22.496 22.8477 19.456 22.8477 17.216V12.448C21.4397 15.392 16.5437 12.096 16.5437 18.848ZM33.8252 21.536C29.2172 16.928 31.3612 9.024 37.6332 7.36C38.3372 7.168 39.0732 7.072 39.8092 7.072C41.4732 7.072 43.1692 7.552 44.6412 8.576V3.936C44.6412 2.368 46.0173 1.184 47.3932 0.768H43.1372V0.447998H49.7612V0.768C48.5133 0.799999 48.2572 3.104 48.2572 3.936V20.512C48.2572 21.344 48.5133 23.648 49.7612 23.68V24C47.0093 24 45.7612 23.008 45.1532 22.08C43.5852 23.36 41.6972 24 39.8092 24C37.6332 24 35.4572 23.168 33.8252 21.536ZM37.2492 7.84C34.7852 8.992 34.1772 13.152 35.1692 16.8C36.2252 20.736 38.8492 23.552 41.2492 23.488C42.4332 23.456 44.0652 22.592 44.9932 21.824C44.8972 21.6 44.8333 21.376 44.7372 21.12C44.5772 20.64 44.6412 21.216 44.6412 8.992C42.9772 7.776 41.1852 7.392 39.7772 7.392C38.6252 7.392 37.6972 7.616 37.2492 7.84ZM55.604 21.504C50.996 16.896 53.204 9.024 59.412 7.36C59.412 7.36 60.308 7.072 61.652 7.072C65.844 7.072 69.044 9.984 70.1 13.984L57.076 17.248C58.292 21.248 60.852 23.488 62.964 23.488C64.948 23.488 66.42 21.536 66.42 17.216V17.024H70.132C69.684 18.144 69.012 19.648 68.372 20.608C66.9 22.784 64.308 24 61.652 24C59.508 24 57.3 23.2 55.604 21.504ZM59.508 7.68C56.916 8.352 55.796 12.448 56.948 16.8C56.948 16.832 56.98 16.896 56.98 16.928L66.388 14.592C65.524 10.048 61.972 7.008 59.508 7.68ZM86.5028 7.392H84.9988V7.072C87.4628 7.072 89.0948 5.312 90.1508 3.264V7.072H91.6228V7.392H90.1508V22.176C90.1508 22.24 90.1508 23.616 91.5588 23.68V24C89.4468 23.936 86.5028 23.104 86.5028 20.512V7.392ZM112.248 15.52C112.248 20.224 108.408 24 103.768 24C99.224 24 95.32 20.352 95.32 15.52C95.32 10.816 99.192 7.072 103.832 7.072C108.344 7.072 112.248 10.752 112.248 15.52ZM101.752 7.648C98.968 8.352 98.04 12.704 99.128 16.768C100.184 20.736 102.808 23.552 105.24 23.488C108.344 23.392 109.656 18.816 108.44 14.304C107.352 10.24 104.44 6.976 101.752 7.648ZM115.619 7.072H122.243V7.392C120.771 7.424 120.771 10.528 120.771 10.56V17.184C121.507 19.712 123.843 23.488 126.851 23.488C127.715 23.488 128.611 23.168 129.603 22.592C129.027 22.048 128.739 21.344 128.739 20.512V10.56C128.739 8.992 130.115 7.84 131.491 7.392H127.235V7.072H133.859V7.392C132.611 7.456 132.387 9.728 132.387 10.56V20.512C132.387 20.544 132.387 23.648 133.827 23.68V24C133.411 24 131.235 23.904 129.859 22.816C128.579 23.584 127.075 24 125.571 24C121.603 24 117.923 21.184 117.123 17.216V10.56C117.123 8.992 118.499 7.84 119.875 7.392H115.619V7.072ZM153.142 20.544C151.51 22.656 148.95 24.064 146.262 24.064C141.782 24.064 137.846 20.16 137.846 15.552C137.846 10.944 141.654 7.072 146.23 7.072C148.886 7.072 151.446 8.384 153.142 10.56L151.254 14.304C150.038 10.304 146.71 7.04 144.182 7.68C141.622 8.384 140.502 12.448 141.654 16.8C142.294 19.232 144.534 23.52 147.574 23.52C147.894 23.52 148.246 23.456 148.566 23.36C151.126 22.528 151.158 18.592 151.094 16.48L153.142 20.544ZM157.145 23.68C158.617 23.68 158.649 22.24 158.649 22.176V3.936C158.649 2.368 160.025 1.184 161.401 0.768H157.145V0.447998H163.769V0.768C162.521 0.799999 162.297 3.104 162.297 3.936V8.576C163.705 7.616 165.401 7.072 167.097 7.072C171.097 7.072 174.745 9.888 175.545 13.824V22.176C175.545 22.24 175.577 23.68 177.049 23.68V24H170.425V23.68C171.897 23.68 171.929 22.24 171.929 22.176V13.92C170.713 9.888 167.545 7.008 164.985 7.68C164.025 7.936 163.097 8.384 162.297 8.992V22.176C162.297 22.24 162.297 23.68 163.769 23.68V24H157.145V23.68Z" fill="#FEE85F"/>
</svg>
